<svg width="191" height="32" viewBox="0 0 191 32" fill="none" xmlns="http://www.w3.org/2000/svg">
<circle cx="7.5" cy="16" r="7" fill="#129D49" stroke="#129D49"/>
<path d="M30.3691 21H31.6611L28.0244 11.1357H26.8076L23.1709 21H24.4629L25.4541 18.1768H29.3779L30.3691 21ZM27.3955 12.6328H27.4365L29.0156 17.1309H25.8164L27.3955 12.6328ZM37.8887 13.8906H36.6514L34.6826 19.7354H34.6553L32.6934 13.8906H31.4424L34.0605 21H35.2773L37.8887 13.8906ZM41.0332 20.1113C40.1787 20.1113 39.6113 19.667 39.6113 18.9902C39.6113 18.3203 40.1582 17.8965 41.1152 17.835L43.0156 17.7188V18.2998C43.0156 19.3252 42.1543 20.1113 41.0332 20.1113ZM40.7666 21.123C41.7236 21.123 42.626 20.5898 43.0498 19.7764H43.0771V21H44.2051V16.085C44.2051 14.6699 43.1523 13.7676 41.4844 13.7676C39.8027 13.7676 38.75 14.7109 38.668 15.9414H39.8164C39.9668 15.2441 40.541 14.8135 41.457 14.8135C42.4414 14.8135 43.0156 15.333 43.0156 16.2012V16.7959L40.9785 16.9121C39.3379 17.0078 38.4014 17.7734 38.4014 18.9902C38.4014 20.2686 39.3516 21.123 40.7666 21.123ZM45.7773 21H46.9668V13.8906H45.7773V21ZM46.3721 12.6943C46.7822 12.6943 47.1172 12.3594 47.1172 11.9561C47.1172 11.5459 46.7822 11.2178 46.3721 11.2178C45.9688 11.2178 45.6338 11.5459 45.6338 11.9561C45.6338 12.3594 45.9688 12.6943 46.3721 12.6943ZM48.6348 21H49.8242V11.1357H48.6348V21ZM53.7754 20.1113C52.9209 20.1113 52.3535 19.667 52.3535 18.9902C52.3535 18.3203 52.9004 17.8965 53.8574 17.835L55.7578 17.7188V18.2998C55.7578 19.3252 54.8965 20.1113 53.7754 20.1113ZM53.5088 21.123C54.4658 21.123 55.3682 20.5898 55.792 19.7764H55.8193V21H56.9473V16.085C56.9473 14.6699 55.8945 13.7676 54.2266 13.7676C52.5449 13.7676 51.4922 14.7109 51.4102 15.9414H52.5586C52.709 15.2441 53.2832 14.8135 54.1992 14.8135C55.1836 14.8135 55.7578 15.333 55.7578 16.2012V16.7959L53.7207 16.9121C52.0801 17.0078 51.1436 17.7734 51.1436 18.9902C51.1436 20.2686 52.0938 21.123 53.5088 21.123ZM61.9922 21.123C63.8105 21.123 65.0137 19.6807 65.0137 17.4453C65.0137 15.2168 63.8037 13.7676 62.0127 13.7676C61.0078 13.7676 60.1807 14.2666 59.7363 15.0801H59.709V11.1357H58.5195V21H59.6543V19.7969H59.6816C60.1396 20.6172 60.9531 21.123 61.9922 21.123ZM61.7598 14.8135C63.0176 14.8135 63.7969 15.832 63.7969 17.4453C63.7969 19.0723 63.0176 20.0771 61.7598 20.0771C60.5566 20.0771 59.7021 19.0312 59.7021 17.4453C59.7021 15.8662 60.5566 14.8135 61.7598 14.8135ZM66.2852 21H67.4746V11.1357H66.2852V21ZM71.9316 14.7998C73.0527 14.7998 73.7979 15.6475 73.8252 16.8369H69.9629C70.0381 15.6543 70.8174 14.7998 71.9316 14.7998ZM73.7979 18.9629C73.5996 19.6328 72.9365 20.0908 72.0342 20.0908C70.7559 20.0908 69.9561 19.1953 69.9561 17.835V17.7666H75.0557V17.3154C75.0557 15.1621 73.873 13.7676 71.9521 13.7676C69.9902 13.7676 68.7324 15.2646 68.7324 17.4727C68.7324 19.708 69.9697 21.123 72.0068 21.123C73.5586 21.123 74.7617 20.207 74.9668 18.9629H73.7979Z" fill="black"/>
<circle cx="102.5" cy="16" r="7" fill="white" stroke="#129D49"/>
<path d="M120.174 21V13.2822H120.235L125.636 21H126.832V11.1357H125.615V18.8809H125.554L120.153 11.1357H118.957V21H120.174ZM131.508 21.123C133.47 21.123 134.796 19.708 134.796 17.4453C134.796 15.1758 133.47 13.7676 131.508 13.7676C129.539 13.7676 128.213 15.1758 128.213 17.4453C128.213 19.708 129.539 21.123 131.508 21.123ZM131.508 20.0771C130.25 20.0771 129.423 19.1201 129.423 17.4453C129.423 15.7705 130.25 14.8135 131.508 14.8135C132.766 14.8135 133.586 15.7705 133.586 17.4453C133.586 19.1201 132.766 20.0771 131.508 20.0771ZM145.467 21H146.759L143.122 11.1357H141.905L138.269 21H139.561L140.552 18.1768H144.476L145.467 21ZM142.493 12.6328H142.534L144.113 17.1309H140.914L142.493 12.6328ZM152.986 13.8906H151.749L149.78 19.7354H149.753L147.791 13.8906H146.54L149.158 21H150.375L152.986 13.8906ZM156.131 20.1113C155.276 20.1113 154.709 19.667 154.709 18.9902C154.709 18.3203 155.256 17.8965 156.213 17.835L158.113 17.7188V18.2998C158.113 19.3252 157.252 20.1113 156.131 20.1113ZM155.864 21.123C156.821 21.123 157.724 20.5898 158.147 19.7764H158.175V21H159.303V16.085C159.303 14.6699 158.25 13.7676 156.582 13.7676C154.9 13.7676 153.848 14.7109 153.766 15.9414H154.914C155.064 15.2441 155.639 14.8135 156.555 14.8135C157.539 14.8135 158.113 15.333 158.113 16.2012V16.7959L156.076 16.9121C154.436 17.0078 153.499 17.7734 153.499 18.9902C153.499 20.2686 154.449 21.123 155.864 21.123ZM160.875 21H162.064V13.8906H160.875V21ZM161.47 12.6943C161.88 12.6943 162.215 12.3594 162.215 11.9561C162.215 11.5459 161.88 11.2178 161.47 11.2178C161.066 11.2178 160.731 11.5459 160.731 11.9561C160.731 12.3594 161.066 12.6943 161.47 12.6943ZM163.732 21H164.922V11.1357H163.732V21ZM168.873 20.1113C168.019 20.1113 167.451 19.667 167.451 18.9902C167.451 18.3203 167.998 17.8965 168.955 17.835L170.855 17.7188V18.2998C170.855 19.3252 169.994 20.1113 168.873 20.1113ZM168.606 21.123C169.563 21.123 170.466 20.5898 170.89 19.7764H170.917V21H172.045V16.085C172.045 14.6699 170.992 13.7676 169.324 13.7676C167.643 13.7676 166.59 14.7109 166.508 15.9414H167.656C167.807 15.2441 168.381 14.8135 169.297 14.8135C170.281 14.8135 170.855 15.333 170.855 16.2012V16.7959L168.818 16.9121C167.178 17.0078 166.241 17.7734 166.241 18.9902C166.241 20.2686 167.191 21.123 168.606 21.123ZM177.09 21.123C178.908 21.123 180.111 19.6807 180.111 17.4453C180.111 15.2168 178.901 13.7676 177.11 13.7676C176.105 13.7676 175.278 14.2666 174.834 15.0801H174.807V11.1357H173.617V21H174.752V19.7969H174.779C175.237 20.6172 176.051 21.123 177.09 21.123ZM176.857 14.8135C178.115 14.8135 178.895 15.832 178.895 17.4453C178.895 19.0723 178.115 20.0771 176.857 20.0771C175.654 20.0771 174.8 19.0312 174.8 17.4453C174.8 15.8662 175.654 14.8135 176.857 14.8135ZM181.383 21H182.572V11.1357H181.383V21ZM187.029 14.7998C188.15 14.7998 188.896 15.6475 188.923 16.8369H185.061C185.136 15.6543 185.915 14.7998 187.029 14.7998ZM188.896 18.9629C188.697 19.6328 188.034 20.0908 187.132 20.0908C185.854 20.0908 185.054 19.1953 185.054 17.835V17.7666H190.153V17.3154C190.153 15.1621 188.971 13.7676 187.05 13.7676C185.088 13.7676 183.83 15.2646 183.83 17.4727C183.83 19.708 185.067 21.123 187.104 21.123C188.656 21.123 189.859 20.207 190.064 18.9629H188.896Z" fill="black"/>
</svg>
