<svg width="13" height="14" viewBox="0 0 13 14" fill="none" xmlns="http://www.w3.org/2000/svg">
<path d="M2.68945 6.36963H4.02945V7.70963H2.68945V6.36963ZM2.68945 9.04963H4.02945V10.3896H2.68945V9.04963ZM5.36945 6.36963H6.70945V7.70963H5.36945V6.36963ZM5.36945 9.04963H6.70945V10.3896H5.36945V9.04963ZM8.04945 6.36963H9.38945V7.70963H8.04945V6.36963ZM8.04945 9.04963H9.38945V10.3896H8.04945V9.04963Z" fill="#7EAC01"/>
<path d="M1.34977 13.7398H10.7298C11.4698 13.7398 12.0698 13.1398 12.0698 12.3998V3.01984C12.0698 2.27984 11.4698 1.67984 10.7298 1.67984H9.38977V0.339844H8.04977V1.67984H4.02977V0.339844H2.68977V1.67984H1.34977C0.609766 1.67984 0.00976562 2.27984 0.00976562 3.01984V12.3998C0.00976562 13.1398 0.609766 13.7398 1.34977 13.7398ZM10.7298 4.35984V12.3998H1.34977V4.35984H10.7298Z" fill="#7EAC01"/>
</svg>
