<svg width="24" height="22" viewBox="0 0 24 22" fill="none" xmlns="http://www.w3.org/2000/svg">
<path d="M12.5629 2.62509C12.5787 2.62509 12.5941 2.62501 12.6098 2.62501C14.8945 2.62501 17.0354 3.43471 18.6419 4.90743C20.2618 6.3923 21.1478 8.37149 21.1369 10.4804C21.1344 10.955 21.5521 11.3415 22.0699 11.3438C22.0715 11.3438 22.0729 11.3438 22.0745 11.3438C22.59 11.3438 23.0093 10.9617 23.0118 10.4885C23.0252 7.9174 21.9441 5.50375 19.9678 3.69205C18.0068 1.89445 15.3957 0.90625 12.6101 0.90625C12.593 0.90625 12.5757 0.906293 12.5585 0.906336C12.0408 0.908613 11.6231 1.2952 11.6255 1.7698C11.628 2.24301 12.0472 2.62509 12.5629 2.62509Z" fill="#129D49"/>
<path d="M23.9976 17.7269C23.9642 16.8759 23.5775 16.0818 22.9088 15.4907C21.5995 14.3334 20.5026 13.6654 19.4566 13.3883C18.0152 13.0064 16.6804 13.3537 15.4891 14.4202C15.4873 14.4218 15.4855 14.4235 15.4837 14.4251L14.215 15.5795C13.4269 15.1737 11.8951 14.2806 10.2196 12.7448L10.0962 12.6318C8.43179 11.1061 7.45139 9.69384 7.00533 8.96852L8.26341 7.8066C8.26519 7.80497 8.26693 7.80333 8.26871 7.80166C9.43219 6.70965 9.81099 5.48598 9.39446 4.16477C9.09221 3.20601 8.36344 2.20045 7.10091 1.00028C6.45614 0.387332 5.5898 0.0328391 4.66153 0.00215929C3.73345 -0.0284775 2.84128 0.26775 2.14992 0.836658L2.12301 0.85883C2.11049 0.8691 2.09831 0.879713 2.08645 0.890584C0.710195 2.15207 -0.011212 3.91817 0.000131746 5.99791C0.0193505 9.53081 2.13759 13.5711 5.66634 16.8058C5.6693 16.8085 5.6722 16.8111 5.67516 16.8138C6.33853 17.421 7.09172 18.0219 7.914 18.5999C8.32486 18.8887 8.91333 18.8174 9.22843 18.4408C9.54348 18.0641 9.4658 17.5247 9.0549 17.2359C8.29383 16.701 7.59985 16.1474 6.99221 15.5904C6.9893 15.5877 6.98639 15.585 6.98344 15.5824C3.80133 12.6622 1.89192 9.07667 1.87509 5.98927C1.86637 4.38756 2.39198 3.05067 3.39529 2.12147L3.40247 2.11554C4.08393 1.55488 5.11566 1.589 5.75128 2.19323C8.17852 4.50057 8.00274 5.58988 6.93024 6.59801L5.19239 8.20303C4.91986 8.45474 4.84397 8.83407 5.00137 9.15806C5.04548 9.24889 6.11274 11.4108 8.77079 13.8473L8.89416 13.9603C11.5519 16.3966 13.9103 17.3749 14.0094 17.4153C14.3628 17.5597 14.7767 17.4901 15.0512 17.2402L16.8018 15.6475C17.9018 14.6642 19.0902 14.5029 21.6074 16.7279C22.2665 17.3106 22.3038 18.2563 21.6922 18.8809L21.6856 18.8876C20.6801 19.7998 19.2373 20.2812 17.509 20.2812C17.4948 20.2812 17.4805 20.2812 17.4662 20.2812C16.0848 20.2748 14.485 19.9277 12.8402 19.2773C12.3647 19.0893 11.8131 19.2902 11.608 19.726C11.4029 20.1618 11.6221 20.6675 12.0975 20.8555C13.9989 21.6073 15.802 21.9923 17.4568 21.9999C17.4744 22 17.4919 22 17.5094 22C19.7554 22 21.6629 21.3392 23.0284 20.0875C23.0403 20.0765 23.0518 20.0654 23.063 20.0539L23.0874 20.0291C23.7078 19.3955 24.0311 18.5779 23.9976 17.7269Z" fill="#129D49"/>
<path d="M17.3188 6.124C16.3132 5.20214 15.348 4.95752 14.8841 4.83991C14.385 4.71337 13.8687 4.98167 13.7307 5.43916C13.5927 5.8966 13.8853 6.36999 14.3844 6.49649C14.7637 6.59266 15.3369 6.73798 15.993 7.33933C16.6245 7.91824 16.7923 8.44088 16.9033 8.78673L16.9169 8.8288C17.0375 9.2025 17.4108 9.4445 17.8154 9.4445C17.9035 9.44454 17.9932 9.43303 18.082 9.40892C18.5784 9.27421 18.8618 8.79606 18.7148 8.34097L18.7021 8.30153C18.5575 7.85113 18.2883 7.01272 17.3188 6.124Z" fill="#129D49"/>
</svg>
