<svg width="14" height="14" viewBox="0 0 14 14" fill="none" xmlns="http://www.w3.org/2000/svg">
<g clip-path="url(#clip0_157_12093)">
<path d="M11.5863 1.71978C11.5863 1.31987 11.2621 0.995632 10.8622 0.995632H10.1381C10.1381 0.595724 9.81382 0.271484 9.41391 0.271484C9.014 0.271484 8.68976 0.595724 8.68976 0.995632H7.72423C7.72423 0.595724 7.39999 0.271484 7.00009 0.271484C6.60018 0.271484 6.27594 0.595724 6.27594 0.995632H5.31041C5.31041 0.595724 4.98617 0.271484 4.58626 0.271484C4.18636 0.271484 3.86212 0.595724 3.86212 0.995632H2.89659C2.89659 0.595724 2.57235 0.271484 2.17244 0.271484C1.77253 0.271484 1.44829 0.595724 1.44829 0.995632H0.724147C0.32424 0.995632 0 1.31987 0 1.71978V11.8578C0 11.9911 0.10808 12.0992 0.241382 12.0992H0.965529V12.8234C0.965529 12.9567 1.07361 13.0648 1.20691 13.0648H7.56323C7.56642 13.0648 7.56877 13.0631 7.57172 13.0631C8.85017 13.9448 10.5171 14.0286 11.8776 13.2794C13.2381 12.5302 14.0584 11.0766 13.9968 9.52487C13.9351 7.97297 13.002 6.58915 11.5863 5.95022V1.71978ZM9.17253 0.995632C9.17253 0.862329 9.28061 0.754249 9.41391 0.754249C9.54721 0.754249 9.65529 0.862329 9.65529 0.995632V1.71978H9.17253V0.995632ZM6.7587 0.995632C6.7587 0.862329 6.86678 0.754249 7.00009 0.754249C7.13339 0.754249 7.24147 0.862329 7.24147 0.995632V1.71978H6.7587V0.995632ZM4.34488 0.995632C4.34488 0.862329 4.45296 0.754249 4.58626 0.754249C4.71957 0.754249 4.82765 0.862329 4.82765 0.995632V1.71978H4.34488V0.995632ZM1.93106 0.995632C1.93106 0.862329 2.03914 0.754249 2.17244 0.754249C2.30574 0.754249 2.41382 0.862329 2.41382 0.995632V1.71978H1.93106V0.995632ZM0.482765 1.71978C0.482765 1.58648 0.590844 1.4784 0.724147 1.4784H1.44829V1.96116C1.44829 2.09446 1.55637 2.20254 1.68968 2.20254H2.65521C2.78851 2.20254 2.89659 2.09446 2.89659 1.96116V1.4784H3.86212V1.96116C3.86212 2.09446 3.9702 2.20254 4.1035 2.20254H5.06903C5.20233 2.20254 5.31041 2.09446 5.31041 1.96116V1.4784H6.27594V1.96116C6.27594 2.09446 6.38402 2.20254 6.51732 2.20254H7.48285C7.61615 2.20254 7.72423 2.09446 7.72423 1.96116V1.4784H8.68976V1.96116C8.68976 2.09446 8.79784 2.20254 8.93114 2.20254H9.89667C10.03 2.20254 10.1381 2.09446 10.1381 1.96116V1.4784H10.8622C10.9955 1.4784 11.1036 1.58648 11.1036 1.71978V2.92669H0.482765V1.71978ZM1.44829 12.0992H6.58568C6.70885 12.2704 6.8451 12.4317 6.99313 12.582H1.44829V12.0992ZM13.5174 9.6854C13.5174 11.6851 11.8963 13.3061 9.89667 13.3061C7.89702 13.3061 6.27594 11.6851 6.27594 9.6854C6.27594 7.68574 7.89702 6.06466 9.89667 6.06466C11.8954 6.0669 13.5152 7.68669 13.5174 9.6854ZM9.89667 5.5819C8.45486 5.58095 7.11854 6.33716 6.37707 7.57366C5.63559 8.81003 5.59788 10.3452 6.27783 11.6165H0.482765V3.40946H11.1036V5.76364C10.7126 5.64307 10.3058 5.58178 9.89667 5.5819Z" fill="#129D49"/>
<path d="M2.17239 4.375C1.77248 4.375 1.44824 4.69924 1.44824 5.09915C1.44824 5.49905 1.77248 5.82329 2.17239 5.82329C2.5723 5.82329 2.89654 5.49905 2.89654 5.09915C2.89654 4.69924 2.5723 4.375 2.17239 4.375ZM2.17239 5.34053C2.03909 5.34053 1.93101 5.23245 1.93101 5.09915C1.93101 4.96584 2.03909 4.85776 2.17239 4.85776C2.30569 4.85776 2.41377 4.96584 2.41377 5.09915C2.41377 5.23245 2.30569 5.34053 2.17239 5.34053Z" fill="#129D49"/>
<path d="M4.58621 4.375C4.1863 4.375 3.86206 4.69924 3.86206 5.09915C3.86206 5.49905 4.1863 5.82329 4.58621 5.82329C4.98612 5.82329 5.31036 5.49905 5.31036 5.09915C5.31036 4.69924 4.98612 4.375 4.58621 4.375ZM4.58621 5.34053C4.45291 5.34053 4.34483 5.23245 4.34483 5.09915C4.34483 4.96584 4.45291 4.85776 4.58621 4.85776C4.71951 4.85776 4.82759 4.96584 4.82759 5.09915C4.82759 5.23245 4.71951 5.34053 4.58621 5.34053Z" fill="#129D49"/>
<path d="M7.00003 4.375C6.60012 4.375 6.27588 4.69924 6.27588 5.09915C6.27588 5.49905 6.60012 5.82329 7.00003 5.82329C7.39993 5.82329 7.72417 5.49905 7.72417 5.09915C7.72417 4.69924 7.39993 4.375 7.00003 4.375ZM7.00003 5.34053C6.86672 5.34053 6.75864 5.23245 6.75864 5.09915C6.75864 4.96584 6.86672 4.85776 7.00003 4.85776C7.13333 4.85776 7.24141 4.96584 7.24141 5.09915C7.24141 5.23245 7.13333 5.34053 7.00003 5.34053Z" fill="#129D49"/>
<path d="M2.17239 6.30566C1.77248 6.30566 1.44824 6.6299 1.44824 7.02981C1.44824 7.42972 1.77248 7.75395 2.17239 7.75395C2.5723 7.75395 2.89654 7.42972 2.89654 7.02981C2.89654 6.6299 2.5723 6.30566 2.17239 6.30566ZM2.17239 7.27119C2.03909 7.27119 1.93101 7.16311 1.93101 7.02981C1.93101 6.89651 2.03909 6.78843 2.17239 6.78843C2.30569 6.78843 2.41377 6.89651 2.41377 7.02981C2.41377 7.16311 2.30569 7.27119 2.17239 7.27119Z" fill="#129D49"/>
<path d="M4.58621 6.30566C4.1863 6.30566 3.86206 6.6299 3.86206 7.02981C3.86206 7.42972 4.1863 7.75395 4.58621 7.75395C4.98612 7.75395 5.31036 7.42972 5.31036 7.02981C5.31036 6.6299 4.98612 6.30566 4.58621 6.30566ZM4.58621 7.27119C4.45291 7.27119 4.34483 7.16311 4.34483 7.02981C4.34483 6.89651 4.45291 6.78843 4.58621 6.78843C4.71951 6.78843 4.82759 6.89651 4.82759 7.02981C4.82759 7.16311 4.71951 7.27119 4.58621 7.27119Z" fill="#129D49"/>
<path d="M2.17239 8.2373C1.77248 8.2373 1.44824 8.56154 1.44824 8.96145C1.44824 9.36136 1.77248 9.68559 2.17239 9.68559C2.5723 9.68559 2.89654 9.36136 2.89654 8.96145C2.89654 8.56154 2.5723 8.2373 2.17239 8.2373ZM2.17239 9.20283C2.03909 9.20283 1.93101 9.09475 1.93101 8.96145C1.93101 8.82815 2.03909 8.72007 2.17239 8.72007C2.30569 8.72007 2.41377 8.82815 2.41377 8.96145C2.41377 9.09475 2.30569 9.20283 2.17239 9.20283Z" fill="#129D49"/>
<path d="M4.58621 8.2373C4.1863 8.2373 3.86206 8.56154 3.86206 8.96145C3.86206 9.36136 4.1863 9.68559 4.58621 9.68559C4.98612 9.68559 5.31036 9.36136 5.31036 8.96145C5.31036 8.56154 4.98612 8.2373 4.58621 8.2373ZM4.58621 9.20283C4.45291 9.20283 4.34483 9.09475 4.34483 8.96145C4.34483 8.82815 4.45291 8.72007 4.58621 8.72007C4.71951 8.72007 4.82759 8.82815 4.82759 8.96145C4.82759 9.09475 4.71951 9.20283 4.58621 9.20283Z" fill="#129D49"/>
<path d="M6.75879 9.68485C6.75879 11.4179 8.16371 12.8228 9.89676 12.8228C11.6298 12.8228 13.0347 11.4179 13.0347 9.68485C13.0347 7.9518 11.6298 6.54688 9.89676 6.54688C8.16454 6.54888 6.76079 7.95262 6.75879 9.68485ZM12.552 9.68485H12.0692C11.9359 9.68485 11.8278 9.79293 11.8278 9.92623C11.8278 10.0595 11.9359 10.1676 12.0692 10.1676H12.5059C12.2882 11.336 11.3215 12.2179 10.1381 12.3278V11.8573C10.1381 11.724 10.0301 11.6159 9.89676 11.6159C9.76346 11.6159 9.65538 11.724 9.65538 11.8573V12.3278C8.47204 12.2179 7.50533 11.336 7.28764 10.1676H7.72432C7.85762 10.1676 7.9657 10.0595 7.9657 9.92623C7.9657 9.79293 7.85762 9.68485 7.72432 9.68485H7.24155C7.24332 8.31293 8.28923 7.16777 9.65538 7.04202V7.5124C9.65538 7.64571 9.76346 7.75379 9.89676 7.75379C10.0301 7.75379 10.1381 7.64571 10.1381 7.5124V7.04202C11.5043 7.16777 12.5502 8.31293 12.552 9.68485Z" fill="#129D49"/>
<path d="M9.94846 9.56967L9.61467 9.06888C9.54065 8.95797 9.39073 8.92803 9.27982 9.00193C9.16891 9.07595 9.13898 9.22587 9.21299 9.33678L9.69576 10.0609C9.73383 10.1177 9.79417 10.1558 9.86183 10.1657C9.87338 10.1675 9.88493 10.1684 9.8966 10.1683C9.95305 10.1684 10.0077 10.1486 10.0511 10.1125L11.4994 8.90564C11.602 8.82031 11.6159 8.66803 11.5305 8.5656C11.4452 8.46306 11.2929 8.44904 11.1904 8.53437L9.94846 9.56967Z" fill="#129D49"/>
</g>
<defs>
<clipPath id="clip0_157_12093">
<rect width="14" height="14" fill="white"/>
</clipPath>
</defs>
</svg>
