<svg width="36" height="36" viewBox="0 0 36 36" fill="none" xmlns="http://www.w3.org/2000/svg">
<rect x="0.25" y="0.25" width="35.5" height="35.5" rx="17.75" stroke="#333333" stroke-width="0.5"/>
<path d="M17.6706 8.83398H17.6662C12.7952 8.83398 8.83423 12.7961 8.83423 17.6681C8.83423 19.6006 9.45704 21.3917 10.516 22.846L9.41507 26.1279L12.8107 25.0424C14.2076 25.9678 15.8739 26.5023 17.6706 26.5023C22.5415 26.5023 26.5025 22.539 26.5025 17.6681C26.5025 12.7972 22.5415 8.83398 17.6706 8.83398ZM22.8109 21.3089C22.5978 21.9107 21.752 22.4099 21.0772 22.5556C20.6157 22.6539 20.0127 22.7323 17.9831 21.8908C15.387 20.8153 13.7151 18.1772 13.5848 18.006C13.46 17.8349 12.5357 16.6091 12.5357 15.3414C12.5357 14.0737 13.1795 13.4564 13.439 13.1914C13.6521 12.9739 14.0044 12.8745 14.3423 12.8745C14.4516 12.8745 14.5499 12.88 14.6383 12.8844C14.8978 12.8955 15.0281 12.9109 15.1992 13.3206C15.4124 13.8341 15.9314 15.1018 15.9932 15.2321C16.0561 15.3624 16.1191 15.5391 16.0307 15.7103C15.9479 15.8869 15.875 15.9653 15.7447 16.1155C15.6144 16.2657 15.4908 16.3805 15.3604 16.5418C15.2412 16.682 15.1065 16.8322 15.2566 17.0917C15.4068 17.3457 15.9258 18.1927 16.69 18.8729C17.6761 19.7508 18.4756 20.0313 18.7616 20.1505C18.9747 20.2389 19.2287 20.2179 19.3844 20.0522C19.5821 19.8391 19.8261 19.4858 20.0746 19.1379C20.2513 18.8883 20.4743 18.8574 20.7084 18.9458C20.9469 19.0286 22.2091 19.6525 22.4686 19.7817C22.7281 19.912 22.8993 19.9738 22.9622 20.0832C23.0241 20.1925 23.0241 20.706 22.8109 21.3089Z" fill="#333333"/>
</svg>
