<svg width="36" height="36" viewBox="0 0 36 36" fill="none" xmlns="http://www.w3.org/2000/svg">
<rect x="0.25" y="0.25" width="35.5" height="35.5" rx="17.75" stroke="#333333" stroke-width="0.5"/>
<path d="M26.8211 14.3995C26.8211 14.3995 26.6456 13.1586 26.1045 12.6141C25.4194 11.8975 24.6521 11.893 24.3011 11.8513C21.7845 11.668 18.0045 11.668 18.0045 11.668H17.9977C17.9977 11.668 14.2189 11.668 11.7011 11.8513C11.349 11.8941 10.5829 11.8975 9.89774 12.6141C9.35662 13.1586 9.18449 14.3995 9.18449 14.3995C9.18449 14.3995 9.00562 15.8552 9.00562 17.3143V18.679C9.00562 20.1347 9.18449 21.5938 9.18449 21.5938C9.18449 21.5938 9.35999 22.8347 9.89774 23.3803C10.5829 24.097 11.4829 24.0733 11.8845 24.1498C13.3256 24.2871 18.0056 24.3287 18.0056 24.3287C18.0056 24.3287 21.789 24.322 24.3056 24.142C24.6577 24.1003 25.4239 24.0958 26.109 23.3792C26.6501 22.8347 26.8256 21.5927 26.8256 21.5927C26.8256 21.5927 27.0045 20.137 27.0045 18.6778V17.3132C27.0011 15.8575 26.8222 14.3983 26.8222 14.3983L26.8211 14.3995ZM16.1404 20.3338L16.1404 15.2747L21.0026 17.8127L16.1404 20.3338Z" fill="#333333"/>
</svg>
