<svg width="36" height="36" viewBox="0 0 36 36" fill="none" xmlns="http://www.w3.org/2000/svg">
<rect x="0.25" y="0.25" width="35.5" height="35.5" rx="17.75" stroke="#333333" stroke-width="0.5"/>
<path d="M18.9858 16.1959C19.2966 15.883 19.5855 15.5317 19.9341 15.2515C20.7867 14.57 21.7847 14.2955 22.8863 14.4068C23.3804 14.4568 23.8864 14.4932 24.3625 14.6199C25.747 14.9923 26.5358 15.9444 26.8486 17.2498C27.0219 17.9754 27.1275 18.7317 27.1394 19.4746C27.1773 21.7167 27.1494 23.9588 27.1574 26.199C27.1574 26.4312 27.0936 26.5042 26.8506 26.5023C25.7769 26.4907 24.7031 26.4984 23.6294 26.4965C23.3206 26.4965 23.3126 26.4888 23.3126 26.1817C23.3126 24.2467 23.3226 22.3118 23.3047 20.3768C23.3007 19.8988 23.2569 19.4093 23.1473 18.9429C22.9461 18.0867 22.3804 17.674 21.4759 17.6625C21.1931 17.6587 20.9002 17.674 20.6273 17.7412C19.7448 17.9562 19.3743 18.605 19.2329 19.3997C19.1631 19.7894 19.1372 20.1925 19.1352 20.588C19.1253 22.4615 19.1273 24.335 19.1352 26.2086C19.1352 26.4274 19.0735 26.5003 18.8424 26.4984C17.7527 26.4888 16.6631 26.4888 15.5734 26.4984C15.3403 26.5003 15.2786 26.4236 15.2786 26.2047C15.2845 22.4577 15.2845 18.7125 15.2786 14.9654C15.2786 14.7505 15.3343 14.6737 15.5694 14.6756C16.6192 14.6871 17.6691 14.6852 18.7189 14.6756C18.934 14.6737 18.9938 14.7428 18.9878 14.9405C18.9779 15.3724 18.9858 15.7986 18.9858 16.1959Z" fill="#333333"/>
<path d="M9.12292 20.5998C9.12292 18.7339 9.12292 16.87 9.12292 15.0042C9.12292 14.6855 9.12292 14.6836 9.46356 14.6836C10.5373 14.6836 11.611 14.6874 12.6848 14.6797C12.8919 14.6778 12.9776 14.722 12.9776 14.9447C12.9716 18.7052 12.9716 22.4656 12.9776 26.2261C12.9776 26.445 12.8959 26.5006 12.6868 26.4987C11.5951 26.4949 10.5054 26.4949 9.41775 26.5026C9.19463 26.5045 9.11694 26.445 9.11893 26.2185C9.1269 24.3449 9.12292 22.4733 9.12292 20.5998Z" fill="#333333"/>
<path d="M11.0315 13.107C9.80637 13.1051 8.83423 12.1587 8.83423 10.9705C8.83423 9.77459 9.81832 8.83207 11.0614 8.83399C12.2845 8.83591 13.2646 9.79955 13.2626 10.9974C13.2587 12.1703 12.2666 13.1089 11.0315 13.107Z" fill="#333333"/>
</svg>
