<svg width="27" height="27" viewBox="0 0 27 27" fill="none" xmlns="http://www.w3.org/2000/svg">
<path d="M18.4674 6.05987C15.8572 2.06669 10.4835 0.941226 6.49031 3.55142C2.49769 6.16247 1.37238 11.5355 3.9817 15.5292C6.3063 19.0846 10.8196 20.3586 14.5999 18.7542C14.6005 19.0973 14.6937 19.4441 14.8958 19.7531L18.697 25.5685C19.2513 26.4145 20.3836 26.6516 21.2271 26.0984C22.0737 25.545 22.3109 24.4127 21.757 23.5682L17.9561 17.7515C17.7551 17.4449 17.4743 17.2195 17.1603 17.0812C20.1483 14.262 20.7923 9.61749 18.4674 6.05987ZM14.7587 16.2017C11.7774 18.1504 7.76573 17.3102 5.81772 14.3291C3.87042 11.3482 4.71047 7.33718 7.69029 5.38815C10.6707 3.43998 14.6824 4.28018 16.6313 7.26072C18.58 10.242 17.7399 14.253 14.7587 16.2017Z" fill="#3A3A3A"/>
</svg>
