<svg width="16" height="16" viewBox="0 0 16 16" fill="none" xmlns="http://www.w3.org/2000/svg">
<path d="M14.8495 3.78987C14.3377 4.01585 13.795 4.16415 13.2395 4.22987C13.8238 3.87942 14.2609 3.32858 14.4695 2.67987C13.9195 3.00987 13.3195 3.23987 12.6895 3.35987C12.2677 2.90838 11.7085 2.60905 11.0989 2.50851C10.4893 2.40798 9.86357 2.51189 9.31919 2.80405C8.77481 3.09621 8.34235 3.56022 8.08917 4.1238C7.83599 4.68737 7.77632 5.31885 7.91945 5.91987C6.80442 5.86413 5.71358 5.57446 4.7178 5.06967C3.72201 4.56489 2.84354 3.85628 2.13945 2.98987C1.88985 3.4178 1.75869 3.90447 1.75945 4.39987C1.75945 5.36987 2.24945 6.22987 3.00945 6.72987C2.56425 6.71625 2.12878 6.59624 1.73945 6.37987V6.40987C1.7384 7.05779 1.96208 7.68602 2.37237 8.18748C2.78266 8.68895 3.35416 9.0326 3.98945 9.15987C3.57544 9.27296 3.14108 9.29006 2.71945 9.20987C2.89723 9.76816 3.24567 10.2566 3.71569 10.6064C4.18571 10.9563 4.75363 11.1498 5.33945 11.1599C4.75804 11.6167 4.09218 11.9544 3.38005 12.1534C2.66791 12.3525 1.92349 12.409 1.18945 12.3199C2.47186 13.1445 3.9648 13.582 5.48945 13.5799C10.6395 13.5799 13.4595 9.30987 13.4595 5.59987C13.4595 5.47987 13.4595 5.35987 13.4495 5.23987C13.9987 4.8437 14.4728 4.35266 14.8495 3.78987Z" fill="white"/>
</svg>
